<svg xmlns="http://www.w3.org/2000/svg" xmlns:xlink="http://www.w3.org/1999/xlink" width="693.698" height="579.588" viewBox="0 0 693.698 579.588"><defs><linearGradient id="a" y1="0.5" x2="1" y2="0.5" gradientUnits="objectBoundingBox"><stop offset="0" stop-color="#c28a40"/><stop offset="1" stop-color="#814c1e"/></linearGradient></defs><path d="M275.164,2284.443l-.19-.343L80.9,1934.68l-160.711,89.261L-80,2023.6l-28.052-50.507.342-.191L374.9,1704.855l.19.343,28.047,50.5-.342.191-160.445,89.114,68.555,123.426a142.3,142.3,0,0,1,61.211-66.589,143.7,143.7,0,1,1,69.947,269.327h0a144.631,144.631,0,0,1-19.276-1.3l13.83,24.9-.342.191-40.542,22.517ZM81.205,1933.615l.191.343,194.073,349.421,160.083-88.912-14.211-25.583.779.109a142.4,142.4,0,0,0,89.159-16.589A142.914,142.914,0,1,0,311.3,1969.467l-.319.719-69.7-125.482.342-.19L402.074,1755.4,374.6,1705.92-106.988,1973.4l27.482,49.48Z" transform="translate(108.052 -1704.855)" fill="url(#a)"/></svg>