<svg xmlns="http://www.w3.org/2000/svg" xmlns:xlink="http://www.w3.org/1999/xlink" width="18.032" height="16.454" viewBox="0 0 18.032 16.454"><defs><linearGradient id="a" x1="-5.532" y1="2.495" x2="8.485" y2="-2.141" gradientUnits="objectBoundingBox"><stop offset="0" stop-color="#bd9c5a"/><stop offset="0.163" stop-color="#b39153"/><stop offset="0.995" stop-color="#856032"/></linearGradient><linearGradient id="b" x1="-1.42" y1="2.502" x2="1.558" y2="-0.578" xlink:href="#a"/><linearGradient id="c" x1="-2.95" y1="4.351" x2="4.172" y2="-3.598" xlink:href="#a"/></defs><g transform="translate(-929.312 -328.79)"><path d="M929.887,338.343h3.663v11.073h-3.663Z" transform="translate(-0.251 -4.172)" fill="url(#a)"/><path d="M947.558,337.692a4.1,4.1,0,0,0-3.579,1.888v-1.521h-3.663v11.073h3.69v-6c0-1.268.649-2.508,2.114-2.508a2.379,2.379,0,0,1,2.339,2.479v6.03h3.691v-6.283c0-4.367-2.958-5.156-4.592-5.156Z" transform="translate(-4.806 -3.887)" fill="url(#b)"/><path d="M931.482,328.79a1.956,1.956,0,1,0,2.17,1.944A2.06,2.06,0,0,0,931.482,328.79Z" transform="translate(0)" fill="url(#c)"/></g></svg>