<svg xmlns="http://www.w3.org/2000/svg" xmlns:xlink="http://www.w3.org/1999/xlink" width="52.641" height="52.657" viewBox="0 0 52.641 52.657"><defs><linearGradient id="a" y1="0.5" x2="1" y2="0.5" gradientUnits="objectBoundingBox"><stop offset="0" stop-color="#bd9c5a"/><stop offset="0.163" stop-color="#b39153"/><stop offset="0.995" stop-color="#856032"/></linearGradient></defs><g transform="translate(0)"><path d="M979.429,326.888l-9.134-5.974a4.2,4.2,0,0,0-5.419.81l0,0-.071.085c-.061.074-.13.134-.187.211l0,0-1.073,1.274c-2.029,2.279-5.1,4.045-13.193-4.05-3.039-3.039-4.689-5.375-5.457-7.221a7.163,7.163,0,0,1-.456-1.557,4.745,4.745,0,0,1,1.923-4.626l1.243-1.048,0,0a4.206,4.206,0,0,0,.989-5.578l-5.973-9.135c-.791-1.142-1.844-2.984-4.3-2.634a7.2,7.2,0,0,0-1.844.617l-.008-.011-.169.085-.013.006h0l-.6.312.148,1.354a3.866,3.866,0,0,0-1-.815,12.157,12.157,0,0,0-5.382,10.309c0,7.905,6.237,17.567,14.757,26.087s18.182,14.668,26,14.668a12.445,12.445,0,0,0,10.14-5.366l.861-1.325.01-.016a7.046,7.046,0,0,0,.845-2.077C982.328,329.523,980.569,327.677,979.429,326.888Zm-41.221-36.424.016.008.126.187Z" transform="translate(-929.45 -287.405)" fill="url(#a)"/><path d="M935.73,289.833a10.079,10.079,0,0,0-1.62-1.916,11.689,11.689,0,0,0-1.356.8,6.623,6.623,0,0,1,1.789,1.94l9.486,13.936a3.779,3.779,0,0,1,.409.863c.245-.214.491-.42.726-.62l.266-.222a1.7,1.7,0,0,0,.163-.137,5.624,5.624,0,0,0-.361-.68Z" transform="translate(-927.433 -287.093)" fill="#fff"/><path d="M953.873,310.076a9.9,9.9,0,0,0-2.2-1.2,11.344,11.344,0,0,0-.974,1.233,6.634,6.634,0,0,1,2.369,1.159l13.889,9.564a3.82,3.82,0,0,1,.691.655c.147-.29.3-.568.453-.841l.169-.3a1.148,1.148,0,0,0,.1-.184,4.964,4.964,0,0,0-.578-.506Z" transform="translate(-916.484 -274.302)" fill="#fff"/></g></svg>