<svg xmlns="http://www.w3.org/2000/svg" xmlns:xlink="http://www.w3.org/1999/xlink" width="46.347" height="56.967" viewBox="0 0 46.347 56.967"><defs><linearGradient id="a" y1="0.5" x2="1" y2="0.5" gradientUnits="objectBoundingBox"><stop offset="0" stop-color="#bd9c5a"/><stop offset="0.163" stop-color="#b39153"/><stop offset="0.995" stop-color="#856032"/></linearGradient></defs><g transform="translate(-591.938 -415.487)"><path d="M976.25,396.314a17.091,17.091,0,0,0,.1-2.222,23.173,23.173,0,0,0-46.347,0,16.094,16.094,0,0,0,.1,2.222v.291c1.931,18.346,23.076,31.282,23.076,31.282s21.145-13.131,22.979-31.187Z" transform="translate(-338.061 44.566)" fill="url(#a)"/><path d="M948.172,379.116a9.976,9.976,0,1,1-9.976,9.974A9.974,9.974,0,0,1,948.172,379.116Z" transform="translate(-333.059 49.568)" stroke="#fff" stroke-miterlimit="10" stroke-width="1.2" fill="url(#a)"/></g></svg>