<svg xmlns="http://www.w3.org/2000/svg" xmlns:xlink="http://www.w3.org/1999/xlink" width="196.79" height="25.101" viewBox="0 0 196.79 25.101"><defs><linearGradient id="a" x1="3.32" y1="-1.188" x2="28.978" y2="-17.281" gradientUnits="objectBoundingBox"><stop offset="0" stop-color="#bd9c5a"/><stop offset="0.359" stop-color="#ab894d"/><stop offset="0.995" stop-color="#856032"/></linearGradient><linearGradient id="b" x1="1.282" y1="-0.134" x2="19.01" y2="-16.597" xlink:href="#a"/><linearGradient id="c" x1="-0.336" y1="0.987" x2="25.313" y2="-16.232" xlink:href="#a"/><linearGradient id="d" x1="-1.584" y1="1.986" x2="20.181" y2="-13.571" xlink:href="#a"/><linearGradient id="e" x1="-5.33" y1="4.239" x2="20.327" y2="-11.858" xlink:href="#a"/><linearGradient id="f" x1="-10.283" y1="8.199" x2="11.489" y2="-7.354" xlink:href="#a"/><linearGradient id="g" x1="-10.236" y1="10.546" x2="7.515" y2="-5.913" xlink:href="#a"/><linearGradient id="h" x1="-17.082" y1="9.249" x2="8.534" y2="-3.802" xlink:href="#a"/><linearGradient id="i" x1="-19.851" y1="14.554" x2="2.725" y2="-0.992" xlink:href="#a"/><linearGradient id="j" x1="-8.081" y1="6.229" x2="15.677" y2="-9.572" xlink:href="#a"/><linearGradient id="k" x1="-22.513" y1="15.836" x2="1.229" y2="0.037" xlink:href="#a"/><linearGradient id="l" x1="-17.598" y1="16.876" x2="-0.234" y2="0.971" xlink:href="#a"/><linearGradient id="m" x1="-4.762" y1="5.119" x2="12.594" y2="-10.78" xlink:href="#a"/><linearGradient id="n" x1="-27.793" y1="19.459" x2="-2.192" y2="2.237" xlink:href="#a"/><linearGradient id="o" x1="-25.012" y1="18.743" x2="-3.274" y2="3.196" xlink:href="#a"/><linearGradient id="p" x1="-13.707" y1="9.58" x2="5.291" y2="-2.828" xlink:href="#a"/><linearGradient id="q" x1="-3.531" y1="3.386" x2="20.35" y2="-13.709" xlink:href="#a"/><linearGradient id="r" x1="-9.682" y1="7.858" x2="13.887" y2="-9.173" xlink:href="#a"/><linearGradient id="s" x1="-15867.077" y1="8606.372" x2="-4492.8" y2="2437.272" xlink:href="#a"/><linearGradient id="t" x1="-9.025" y1="12.55" x2="2.485" y2="-2.005" xlink:href="#a"/><linearGradient id="u" x1="-7068.591" y1="6568.98" x2="1092.821" y2="-1013.924" xlink:href="#a"/><linearGradient id="v" x1="1.028" y1="-0.276" x2="10.736" y2="-10.963" xlink:href="#a"/><linearGradient id="w" x1="0.35" y1="0.643" x2="10.892" y2="-9.364" xlink:href="#a"/><linearGradient id="x" x1="-0.623" y1="1.555" x2="11.666" y2="-9.99" xlink:href="#a"/><linearGradient id="y" x1="-2.185" y1="3.387" x2="8.535" y2="-7.818" xlink:href="#a"/><linearGradient id="z" x1="-3.016" y1="3.837" x2="7.529" y2="-6.171" xlink:href="#a"/><linearGradient id="aa" x1="-5.045" y1="5.162" x2="8.383" y2="-6.345" xlink:href="#a"/><linearGradient id="ab" x1="-1.189" y1="2.559" x2="9.198" y2="-9.007" xlink:href="#a"/><linearGradient id="ac" x1="-8.472" y1="8.099" x2="5.782" y2="-4.12" xlink:href="#a"/><linearGradient id="ad" x1="-6.632" y1="8.624" x2="3.745" y2="-2.936" xlink:href="#a"/><linearGradient id="ae" x1="-11.635" y1="14.192" x2="-1.25" y2="2.627" xlink:href="#a"/><linearGradient id="af" x1="-7.824" y1="9.277" x2="2.902" y2="-1.93" xlink:href="#a"/><linearGradient id="ag" x1="-9.274" y1="10.297" x2="2.036" y2="-1.04" xlink:href="#a"/><linearGradient id="ah" x1="-10.9" y1="11.414" x2="1.095" y2="-0.07" xlink:href="#a"/><linearGradient id="ai" x1="-10.353" y1="10.803" x2="0.188" y2="0.796" xlink:href="#a"/><linearGradient id="aj" x1="-14.429" y1="13.196" x2="-0.993" y2="1.689" xlink:href="#a"/><linearGradient id="ak" x1="-3.494" y1="5.302" x2="4.237" y2="-3.774" xlink:href="#a"/></defs><g transform="translate(-115.811 -197.823)"><g transform="translate(115.811 197.823)"><g transform="translate(0 0)"><path d="M119.942,480.834v-1.309c0-.878-.506-1.321-1.523-1.321s-1.543.467-1.593,1.41h-.821a1.906,1.906,0,0,1,.732-1.617,2.784,2.784,0,0,1,1.728-.554,2.5,2.5,0,0,1,1.64.522,1.791,1.791,0,0,1,.648,1.466v5.719h-.769v-.987a2.99,2.99,0,0,1-2.277,1.161,2,2,0,0,1-1.368-.465,1.643,1.643,0,0,1-.53-1.288,2.259,2.259,0,0,1,1.23-2.157,5.49,5.49,0,0,1,2.56-.582Zm0,.715H119.6a4.117,4.117,0,0,0-2.176.494,1.515,1.515,0,0,0-.8,1.364,1.147,1.147,0,0,0,.3.861,1.183,1.183,0,0,0,.863.3,2.151,2.151,0,0,0,1.136-.351,3.8,3.8,0,0,0,1.012-.9Z" transform="translate(-115.811 -463.169)" fill="url(#a)"/><path d="M138.138,477.754v6.82h.944v.715h-7v-.715h.67a11.683,11.683,0,0,0,.556-2.107,19.18,19.18,0,0,0,.161-2.887v-1.826Zm-3.851.707v1.148a14.765,14.765,0,0,1-.7,4.965h3.738v-6.113Z" transform="translate(-123.028 -463.306)" fill="url(#b)"/><path d="M152.707,477.754h2.539a2.67,2.67,0,0,1,1.726.453,1.815,1.815,0,0,1,.581,1.538A1.794,1.794,0,0,1,156.5,481.4a1.758,1.758,0,0,1,.964.635,2,2,0,0,1,.3,1.207q0,2.054-2.46,2.052h-2.6Zm.814.707v2.68h1.746a1.361,1.361,0,0,0,1.034-.418,1.457,1.457,0,0,0,.4-1.032c0-.817-.491-1.229-1.474-1.229Zm0,3.392v2.721H155.3a2.092,2.092,0,0,0,1.248-.3,1.2,1.2,0,0,0,.406-1.021,1.336,1.336,0,0,0-.373-1.048,1.945,1.945,0,0,0-1.28-.349Z" transform="translate(-132.175 -463.306)" fill="url(#c)"/><path d="M172.641,477.444a2.429,2.429,0,0,1,2.127.91,5.449,5.449,0,0,1,.655,3.081q0,3.894-2.826,3.891a2.457,2.457,0,0,1-2.1-.929,5.017,5.017,0,0,1-.708-3,5.229,5.229,0,0,1,.682-3.012A2.526,2.526,0,0,1,172.641,477.444Zm-.047.76a1.7,1.7,0,0,0-1.514.7,6.716,6.716,0,0,0,0,4.965,1.995,1.995,0,0,0,3.02.007,4.706,4.706,0,0,0,.468-2.475,4.869,4.869,0,0,0-.468-2.5A1.69,1.69,0,0,0,172.594,478.2Z" transform="translate(-139.752 -463.169)" fill="url(#d)"/><path d="M210.5,480.834v-1.309c0-.878-.511-1.321-1.517-1.321s-1.55.467-1.6,1.41h-.814A1.914,1.914,0,0,1,207.3,478a2.785,2.785,0,0,1,1.731-.554,2.508,2.508,0,0,1,1.64.522,1.8,1.8,0,0,1,.65,1.466v5.719h-.777v-.987a2.97,2.97,0,0,1-2.267,1.161,2.01,2.01,0,0,1-1.376-.465,1.643,1.643,0,0,1-.526-1.288,2.248,2.248,0,0,1,1.227-2.157,5.492,5.492,0,0,1,2.559-.582Zm0,.715h-.341a4.085,4.085,0,0,0-2.172.494,1.531,1.531,0,0,0-.8,1.364,1.16,1.16,0,0,0,.307.861,1.175,1.175,0,0,0,.863.3,2.156,2.156,0,0,0,1.136-.351,3.872,3.872,0,0,0,1.008-.9Z" transform="translate(-155.979 -463.169)" fill="url(#e)"/><path d="M279.945,477.444a2.447,2.447,0,0,1,2.129.91,5.444,5.444,0,0,1,.655,3.081c0,2.6-.947,3.891-2.825,3.891a2.464,2.464,0,0,1-2.1-.929,5.014,5.014,0,0,1-.7-3,5.232,5.232,0,0,1,.672-3.012A2.529,2.529,0,0,1,279.945,477.444Zm-.052.76a1.7,1.7,0,0,0-1.511.7,6.737,6.737,0,0,0,0,4.965,1.7,1.7,0,0,0,1.511.7,1.682,1.682,0,0,0,1.506-.688,4.7,4.7,0,0,0,.467-2.475,4.858,4.858,0,0,0-.467-2.5A1.675,1.675,0,0,0,279.893,478.2Z" transform="translate(-187.346 -463.169)" fill="url(#f)"/><path d="M312.455,477.754v6.82h.932v.715H306.4v-.715h.666a11.278,11.278,0,0,0,.556-2.107,18.49,18.49,0,0,0,.157-2.887v-1.826Zm-3.857.707v1.148a14.8,14.8,0,0,1-.7,4.965h3.739v-6.113Z" transform="translate(-200.342 -463.306)" fill="url(#g)"/><path d="M327.092,477.617h.745v.707a3.782,3.782,0,0,1,2.194-.88,2.343,2.343,0,0,1,1.756.773,2.89,2.89,0,0,1,.607,1.222,6.853,6.853,0,0,1,.214,1.919,4.5,4.5,0,0,1-.815,2.984,2.65,2.65,0,0,1-2.115.985,3.825,3.825,0,0,1-1.766-.549v2.776h0v.716h-.82Zm2.568,6.946q2.094,0,2.095-3.184c0-2.122-.582-3.184-1.742-3.175a2.55,2.55,0,0,0-1.055.2,6.234,6.234,0,0,0-1.046.617v4.913A3.032,3.032,0,0,0,329.66,484.562Z" transform="translate(-209.519 -463.169)" fill="url(#h)"/><path d="M392.217,481.291h-4.57a4.4,4.4,0,0,0,.556,2.549,1.924,1.924,0,0,0,1.613.722,3.559,3.559,0,0,0,2.144-.841v.841a3.229,3.229,0,0,1-2.115.764,2.791,2.791,0,0,1-2.249-.969,4.592,4.592,0,0,1-.806-3.013q0-3.9,2.861-3.9a2.26,2.26,0,0,1,1.933.826,3.587,3.587,0,0,1,.634,2.241Zm-.853-.712c0-1.585-.58-2.376-1.727-2.376a1.7,1.7,0,0,0-1.388.556,3.084,3.084,0,0,0-.554,1.82Z" transform="translate(-235.996 -463.169)" fill="url(#i)"/><path d="M245.594,484.25a1.35,1.35,0,0,1-.425.2,3.351,3.351,0,0,1-.8.109,2.23,2.23,0,0,1-.866-.174,1.66,1.66,0,0,1-.6-.521,6.5,6.5,0,0,1,0-4.965,1.588,1.588,0,0,1,.6-.521,2.07,2.07,0,0,1,.866-.175,3.5,3.5,0,0,1,.8.1,1.434,1.434,0,0,1,.425.208,1.491,1.491,0,0,1,.48,1.1h.776a2.267,2.267,0,0,0-.643-1.563,2.3,2.3,0,0,0-1.718-.607h-.033a2.955,2.955,0,0,0-1.317.271,2.3,2.3,0,0,0-.832.652,5.1,5.1,0,0,0-.7,3.012v0h0a5.077,5.077,0,0,0,.7,3.012,2.219,2.219,0,0,0,.832.656,2.91,2.91,0,0,0,1.317.273v0a.063.063,0,0,1,.019,0,2.318,2.318,0,0,0,1.731-.609,2.271,2.271,0,0,0,.643-1.563h-.776A1.486,1.486,0,0,1,245.594,484.25Z" transform="translate(-171.605 -463.169)" fill="url(#j)"/><path d="M408.938,484.25a1.247,1.247,0,0,1-.425.2,3.312,3.312,0,0,1-.792.109,2.275,2.275,0,0,1-.867-.174,1.714,1.714,0,0,1-.6-.521,6.545,6.545,0,0,1,0-4.965,1.638,1.638,0,0,1,.6-.521,2.109,2.109,0,0,1,.867-.175,3.457,3.457,0,0,1,.792.1,1.317,1.317,0,0,1,.425.208,1.519,1.519,0,0,1,.487,1.1h.77a2.256,2.256,0,0,0-.642-1.563,2.31,2.31,0,0,0-1.719-.607H407.8a2.959,2.959,0,0,0-1.314.271,2.175,2.175,0,0,0-.826.652,5.039,5.039,0,0,0-.709,3.012v0h0a5.021,5.021,0,0,0,.709,3.012,2.1,2.1,0,0,0,.826.656,2.914,2.914,0,0,0,1.314.273l0,0,.032,0a2.313,2.313,0,0,0,1.719-.609,2.26,2.26,0,0,0,.642-1.563h-.77A1.514,1.514,0,0,1,408.938,484.25Z" transform="translate(-244.051 -463.169)" fill="url(#k)"/><path d="M424.231,485.289v-6.828h-3.049v-.707h6.9v.707h-3.036v6.828Z" transform="translate(-251.251 -463.306)" fill="url(#l)"/><path d="M225.7,485.289v-6.828h-3.052v-.707h6.9v.707H226.51v6.828Z" transform="translate(-163.194 -463.306)" fill="url(#m)"/><path d="M440.815,477.754h2.539a2.673,2.673,0,0,1,1.73.453,1.841,1.841,0,0,1,.58,1.538,1.144,1.144,0,0,0-.086,2.286,2.049,2.049,0,0,1,.306,1.207q0,2.054-2.472,2.052h-2.6Zm.816.707v2.68h1.744a1.378,1.378,0,0,0,1.039-.418,1.469,1.469,0,0,0,.387-1.032c.006-.817-.485-1.229-1.464-1.229Zm0,3.392v2.721h1.776a2.138,2.138,0,0,0,1.258-.3,1.219,1.219,0,0,0,.4-1.021,1.316,1.316,0,0,0-.376-1.048,1.923,1.923,0,0,0-1.278-.349Z" transform="translate(-259.958 -463.306)" fill="url(#n)"/><path d="M462.17,477.444a2.44,2.44,0,0,1,2.13.91,5.427,5.427,0,0,1,.654,3.081c0,2.6-.934,3.891-2.829,3.891a2.457,2.457,0,0,1-2.1-.929,5,5,0,0,1-.713-3,5.17,5.17,0,0,1,.689-3.012A2.511,2.511,0,0,1,462.17,477.444Zm-.049.76a1.694,1.694,0,0,0-1.508.7,6.7,6.7,0,0,0,0,4.965,1.99,1.99,0,0,0,3.016.007,4.7,4.7,0,0,0,.467-2.475,4.858,4.858,0,0,0-.467-2.5A1.689,1.689,0,0,0,462.12,478.2Z" transform="translate(-268.164 -463.169)" fill="url(#o)"/><path d="M348.561,477.73l-2.34,6.106-2.2-6.106h-.894l2.639,7.235-.62,1.378a1.737,1.737,0,0,1-1.585,1.205,1.582,1.582,0,0,1-.37-.042,3.192,3.192,0,0,1-.715-.2v.81a2.864,2.864,0,0,0,1.08.193,2.586,2.586,0,0,0,1.2-.3,2.673,2.673,0,0,0,.829-.873,5.869,5.869,0,0,0,.333-.621c.134-.279.224-.5.293-.663s.166-.425.3-.771l2.876-7.347Z" transform="translate(-216.343 -463.296)" fill="url(#p)"/><path d="M193.617,481.667a1.89,1.89,0,0,0-1.2-.554l2.553-3.383h-.9l-2.536,3.331h-1.059v-3.317h-.814v7.535h.814v-3.51h1.374a1.729,1.729,0,0,1,1.116.313,2.845,2.845,0,0,1,.683,1.3l.613,1.9h.8l-.652-2.132A4.2,4.2,0,0,0,193.617,481.667Z" transform="translate(-148.564 -463.296)" fill="url(#q)"/><path d="M262.17,481.071h-1.051v-3.317h-.81v7.535h.81v-3.51h1.371a1.708,1.708,0,0,1,1.114.313,2.785,2.785,0,0,1,.688,1.3l.615,1.9h.846l-.7-2.132a4.126,4.126,0,0,0-.787-1.479,1.9,1.9,0,0,0-1.2-.554l2.646-3.37h-1Z" transform="translate(-179.899 -463.306)" fill="url(#r)"/><g transform="translate(137.516 14.432)"><path d="M362.932,491.308l.007-.013h-.007Z" transform="translate(-362.932 -483.744)" fill="url(#s)"/><path d="M370.947,481.659a1.859,1.859,0,0,0-1.2-.575l2.618-3.33H371.4l-2.539,3.274h-.74v-3.274H367.3v3.274h-.766L364,477.754h-.978l2.618,3.33a1.813,1.813,0,0,0-1.182.575,4.207,4.207,0,0,0-.795,1.5l-.725,2.132h.814l.656-1.9a3.315,3.315,0,0,1,.713-1.331,1.589,1.589,0,0,1,1.09-.318H367.3v3.545h.818v-3.545h1.057a1.59,1.59,0,0,1,1.091.318,3.171,3.171,0,0,1,.712,1.331l.658,1.9h.832l-.732-2.132A4.251,4.251,0,0,0,370.947,481.659Z" transform="translate(-362.937 -477.738)" fill="url(#t)"/><path d="M379.889,477.726l-.014.016h.014Z" transform="translate(-370.446 -477.726)" fill="url(#u)"/></g><g transform="translate(0 0.024)"><path d="M123.11,454.412v8.071h-3.238v-8.071h-4.062v-2.2h11.3v2.2Z" transform="translate(-115.811 -452.003)" fill="url(#v)"/><path d="M138.808,453.02a5.992,5.992,0,0,1,7.224.052,5.187,5.187,0,0,1,1.426,4.072,5.306,5.306,0,0,1-1.391,4.105,5.242,5.242,0,0,1-3.657,1.289,5.336,5.336,0,0,1-3.62-1.186,3.941,3.941,0,0,1-1.1-1.66,7.015,7.015,0,0,1-.391-2.5A5.21,5.21,0,0,1,138.808,453.02Zm4.892,1.906a1.462,1.462,0,0,0-1.29-.6,1.677,1.677,0,0,0-1.371.622,3.67,3.67,0,0,0-.5,2.233,3.758,3.758,0,0,0,.5,2.244,1.687,1.687,0,0,0,1.371.624,1.478,1.478,0,0,0,1.29-.607,4.339,4.339,0,0,0,.423-2.262A4.25,4.25,0,0,0,143.7,454.926Z" transform="translate(-125.34 -451.835)" fill="url(#w)"/><path d="M168.128,462.483h-3.244V454.49h-3.16v7.993H158.48V452.214h9.648Z" transform="translate(-134.736 -452.003)" fill="url(#x)"/><path d="M211.932,462.483h-3.248V454.49H206.1l-.251,3.871a6.347,6.347,0,0,1-.52,2.542,2.465,2.465,0,0,1-1.067,1.111,4.888,4.888,0,0,1-2.282.469H201.2V460.2h.366a.8.8,0,0,0,.786-.432,3.837,3.837,0,0,0,.266-1.405l.235-3.874h0v-2.276h9.081Z" transform="translate(-153.682 -452.003)" fill="url(#y)"/><path d="M224.533,453.02a5.987,5.987,0,0,1,7.22.052,5.165,5.165,0,0,1,1.43,4.072,5.315,5.315,0,0,1-1.392,4.105,5.236,5.236,0,0,1-3.654,1.289,5.337,5.337,0,0,1-3.622-1.186,3.917,3.917,0,0,1-1.1-1.66,6.99,6.99,0,0,1-.391-2.5A5.228,5.228,0,0,1,224.533,453.02Zm4.893,1.906a1.462,1.462,0,0,0-1.289-.6,1.7,1.7,0,0,0-1.376.622,3.7,3.7,0,0,0-.5,2.233,3.786,3.786,0,0,0,.5,2.244,1.71,1.71,0,0,0,1.376.624,1.478,1.478,0,0,0,1.289-.607,4.309,4.309,0,0,0,.418-2.262A4.222,4.222,0,0,0,229.426,454.926Z" transform="translate(-163.363 -451.835)" fill="url(#z)"/><path d="M244.254,452.214h4.073q4.547,0,4.547,2.769a2.1,2.1,0,0,1-.493,1.406,2.818,2.818,0,0,1-1.328.845,2.382,2.382,0,0,1,1.455.706,2.17,2.17,0,0,1,.545,1.531q0,3.011-4.766,3.012h-4.034Zm3.25,2.2v1.858h.96a1.226,1.226,0,0,0,.81-.228.958.958,0,0,0,.258-.762c0-.357-.1-.591-.3-.7a1.793,1.793,0,0,0-.862-.173Zm0,3.874v2h.977c.824,0,1.231-.338,1.231-1.013a.9.9,0,0,0-.29-.753,1.487,1.487,0,0,0-.94-.231Z" transform="translate(-172.779 -452.003)" fill="url(#aa)"/><path d="M190.115,462.483h-3.53l-.972-3.148h-2.637l-.9,3.148h-3.4l3.66-10.269h4.243m-1.449,5.106s-.763-2.62-.806-2.946c-.12.691-.78,2.946-.78,2.946Z" transform="translate(-143.695 -452.003)" fill="url(#ab)"/><g transform="translate(104.202)"><path d="M303.065,452.214H311v2.276h-4.692V456h.964a6.367,6.367,0,0,1,3.444.784,3.174,3.174,0,0,1-.027,4.914,6.414,6.414,0,0,1-3.5.783h-4.125Zm3.244,6.072v2h.981c.823,0,1.23-.338,1.23-1.013a.931.931,0,0,0-.28-.753,1.481,1.481,0,0,0-.949-.231Z" transform="translate(-303.065 -452.003)" fill="url(#ac)"/><path d="M331.065,462.483h-3.534l-.965-3.148h-2.642l-.9,3.148h-3.4l3.668-10.269h4.234m-1.444,5.106s-.76-2.62-.814-2.946c-.117.691-.778,2.946-.778,2.946Z" transform="translate(-310.41 -452.003)" fill="url(#ad)"/><path d="M460.332,462.483H456.8l-.972-3.148h-2.638l-.895,3.148h-3.4l3.667-10.269H456.8m-1.451,5.106s-.757-2.62-.8-2.946c-.113.691-.784,2.946-.784,2.946Z" transform="translate(-367.745 -452.003)" fill="url(#ae)"/><path d="M353.1,462.483h-3.242V454.49h-2.584l-.254,3.871a6.329,6.329,0,0,1-.509,2.542,2.505,2.505,0,0,1-1.073,1.111,4.894,4.894,0,0,1-2.284.469h-.782V460.2h.366a.8.8,0,0,0,.786-.432,3.746,3.746,0,0,0,.263-1.405l.236-3.874h0v-2.276H353.1Z" transform="translate(-320.5 -452.003)" fill="url(#af)"/><path d="M365.486,462.483V452.214h3.243v5.806l3.6-5.806h3.45v10.269h-3.246v-5.6l-3.628,5.6Z" transform="translate(-330.75 -452.003)" fill="url(#ag)"/><path d="M395.65,462.483v-3.835h-3.344v3.835h-3.244V452.214h3.244v3.942h3.344v-3.942h3.243v10.269Z" transform="translate(-341.206 -452.003)" fill="url(#ah)"/><path d="M411.554,453.02a5.992,5.992,0,0,1,7.224.052,5.174,5.174,0,0,1,1.427,4.072,5.3,5.3,0,0,1-1.394,4.105,5.215,5.215,0,0,1-3.651,1.289,5.34,5.34,0,0,1-3.618-1.186,3.894,3.894,0,0,1-1.1-1.66,6.977,6.977,0,0,1-.392-2.5A5.215,5.215,0,0,1,411.554,453.02Zm4.895,1.906a1.461,1.461,0,0,0-1.285-.6,1.679,1.679,0,0,0-1.377.622,3.664,3.664,0,0,0-.5,2.233,3.752,3.752,0,0,0,.5,2.244,1.689,1.689,0,0,0,1.377.624,1.477,1.477,0,0,0,1.285-.607,4.364,4.364,0,0,0,.416-2.262A4.275,4.275,0,0,0,416.448,454.926Z" transform="translate(-350.513 -451.835)" fill="url(#ai)"/><path d="M431.8,452.214h4.069q4.548,0,4.551,2.769a2.1,2.1,0,0,1-.5,1.406,2.8,2.8,0,0,1-1.332.845,2.356,2.356,0,0,1,1.457.706,2.131,2.131,0,0,1,.545,1.531q0,3.011-4.761,3.012H431.8Zm3.239,2.2v1.858h.967a1.215,1.215,0,0,0,.809-.228.966.966,0,0,0,.258-.762.728.728,0,0,0-.292-.7,1.842,1.842,0,0,0-.863-.173Zm0,3.874v2h.983q1.231,0,1.232-1.013a.907.907,0,0,0-.292-.753,1.485,1.485,0,0,0-.94-.231Z" transform="translate(-360.162 -452.003)" fill="url(#aj)"/></g></g><path d="M281.142,460.247l2.876,2.347h-4.046l-.865-.653a6.453,6.453,0,0,1-3.594.881,5.256,5.256,0,0,1-3.354-.9,2.864,2.864,0,0,1-1.092-2.332,2.734,2.734,0,0,1,.513-1.615,3.324,3.324,0,0,1,1.467-1.131,3.008,3.008,0,0,1-1.087-2.241,2.423,2.423,0,0,1,1.092-2.026,5.167,5.167,0,0,1,3.059-.79,4.984,4.984,0,0,1,3.008.775,2.369,2.369,0,0,1,1.045,1.957q0,1.775-2.312,2.841l1.136.986a2.6,2.6,0,0,0,.245-1.254h2.873s0,.065-.108,1.011a5.1,5.1,0,0,1-.654,1.836m-6.832-.477a.851.851,0,0,0,.383.747,1.835,1.835,0,0,0,1.936-.03l-1.743-1.614A1.149,1.149,0,0,0,274.514,459.464Zm2.309-4.837c0-.451-.254-.677-.77-.677a.822.822,0,0,0-.52.159.6.6,0,0,0-.229.514,1.6,1.6,0,0,0,.539,1.1C276.5,455.445,276.823,455.076,276.823,454.627Z" transform="translate(-184.671 -451.791)" fill="url(#ak)"/></g></g></g></svg>