<svg xmlns="http://www.w3.org/2000/svg" width="110.318" height="28.219" viewBox="0 0 110.318 28.219"><g transform="translate(-1697.858 1684.347)"><g transform="translate(1697.858 -1684.347)"><g transform="translate(0 0)"><path d="M3563.282-378.756c-6.43.046-11.689,7.192-11.689,13.425,0,6.559,3.855,14.561,11.689,14.535s11.9-8.64,11.9-14.535C3575.182-371.842,3569.712-378.8,3563.282-378.756Zm0,.244c5.382,0,6.833,5.943,6.833,13.181,0,9.55-1.751,14.261-6.833,14.252s-6.735-3.865-6.735-14.252C3556.547-371.837,3557.9-378.511,3563.282-378.511Z" transform="translate(-3531.107 378.879)"/><path d="M3906.776-366.723c-.029-7.092,5.647-13.375,10.452-13.686a12.815,12.815,0,0,1,5.27,1.238c.946.411,2.876-.184,3.219-1.276h.187v9.661h-.187c0-.412-1.789-9.38-8.489-9.38-4.948,0-5.426,8.7-5.426,13.444s.144,14.131,5.919,14.131c2.8,0,4.868-1.224,5.4-3.7v-7.528h-2.348v-.321h9.1v.321h-2.244v11.007h-.183a2.174,2.174,0,0,0-2.217-1.583c-2.367.007-4.6,2.063-7.32,2.038C3910.718-352.425,3906.8-359.631,3906.776-366.723Z" transform="translate(-3860.578 380.448)"/><path d="M3271.431-369.689H3268.6v-.319h9.927v.319h-2.49l7.093,19.263c2.218-6.829,3.937-11.877,6.249-19.263h-2.463v-.319h5.241v.319h-2.387l-8.621,26.876Z" transform="translate(-3268.597 370.763)"/><path d="M4209.982-349.609l-.044-20.327h-2.7v-.3h9.938v.3h-2.7l.06,22.287c.6,2.552,1.658,4.489,5.283,4.517a6.987,6.987,0,0,0,7.006-5.115v-21.69h-3.086v-.3H4249l.053,9.758h-.243c-.468-6.3-2.9-8.681-7.151-9.376a35.007,35.007,0,0,0-4.938-.077v12.454c1.689.13,3.489.024,4.7-1.018,1.1-.947,1.415-3.136,1.5-4.025h.214v10.843h-.231c-.066,0-.155-2.721-1.478-4.012a5.142,5.142,0,0,0-4.7-1.309v13.3c2.367,0,4.252.2,5.891-.249,4.98-1.365,6.732-5.566,6.72-9.78h.277v10.344H4229.8v-.315h2.24v-26.245H4227.2v21.69c-.549,2.075-2.554,5.509-7.691,5.485C4214.73-342.782,4209.992-344.936,4209.982-349.609Z" transform="translate(-4139.292 370.98)"/></g></g></g></svg>